<mxfile host="Electron" modified="2024-03-13T17:20:47.017Z" agent="Mozilla/5.0 (Windows NT 10.0; Win64; x64) AppleWebKit/537.36 (KHTML, like Gecko) draw.io/23.1.5 Chrome/120.0.6099.109 Electron/28.1.0 Safari/537.36" etag="uVaDC5WVGJRcESseqPk3" version="23.1.5" type="device">
  <diagram name="Page-1" id="e7e014a7-5840-1c2e-5031-d8a46d1fe8dd">
    <mxGraphModel dx="1195" dy="725" grid="1" gridSize="10" guides="1" tooltips="1" connect="1" arrows="1" fold="1" page="1" pageScale="1" pageWidth="4681" pageHeight="3300" background="none" math="0" shadow="0">
      <root>
        <mxCell id="0" />
        <mxCell id="1" parent="0" />
        <mxCell id="UA5KDCB0PcJAtqd0aWiQ-117" value="Main Thread" style="swimlane;startSize=20;html=1;strokeColor=#ff0000;" parent="1" vertex="1">
          <mxGeometry x="38" y="50" width="522" height="750" as="geometry" />
        </mxCell>
        <mxCell id="Hwy9rk10nYl19Dumdkuj-2" style="edgeStyle=orthogonalEdgeStyle;rounded=0;orthogonalLoop=1;jettySize=auto;html=1;exitX=0;exitY=0.5;exitDx=0;exitDy=0;entryX=0.5;entryY=1;entryDx=0;entryDy=0;strokeColor=#ff0000;" parent="UA5KDCB0PcJAtqd0aWiQ-117" source="UA5KDCB0PcJAtqd0aWiQ-96" target="UA5KDCB0PcJAtqd0aWiQ-79" edge="1">
          <mxGeometry relative="1" as="geometry" />
        </mxCell>
        <mxCell id="UA5KDCB0PcJAtqd0aWiQ-96" value="Render" style="rounded=1;whiteSpace=wrap;html=1;arcSize=40;fontColor=#000000;fillColor=#ffffc0;strokeColor=#ff0000;" parent="UA5KDCB0PcJAtqd0aWiQ-117" vertex="1">
          <mxGeometry x="380" y="380" width="120" height="40" as="geometry" />
        </mxCell>
        <mxCell id="fYxGW6v7XnyAVIJgPDkP-6" value="" style="edgeStyle=orthogonalEdgeStyle;rounded=0;orthogonalLoop=1;jettySize=auto;html=1;strokeColor=#ff0000;" parent="UA5KDCB0PcJAtqd0aWiQ-117" source="UA5KDCB0PcJAtqd0aWiQ-88" target="UA5KDCB0PcJAtqd0aWiQ-92" edge="1">
          <mxGeometry relative="1" as="geometry" />
        </mxCell>
        <mxCell id="pbikhUMTNGqrWc31NT2j-3" style="edgeStyle=orthogonalEdgeStyle;rounded=0;orthogonalLoop=1;jettySize=auto;html=1;exitX=0.5;exitY=0;exitDx=0;exitDy=0;strokeColor=#ff0000;dashed=1;dashPattern=12 12;" parent="UA5KDCB0PcJAtqd0aWiQ-117" source="UA5KDCB0PcJAtqd0aWiQ-88" target="UA5KDCB0PcJAtqd0aWiQ-68" edge="1">
          <mxGeometry relative="1" as="geometry" />
        </mxCell>
        <mxCell id="UA5KDCB0PcJAtqd0aWiQ-88" value="Event Handle" style="rounded=1;whiteSpace=wrap;html=1;arcSize=40;fontColor=#000000;fillColor=#ffffc0;strokeColor=#ff0000;" parent="UA5KDCB0PcJAtqd0aWiQ-117" vertex="1">
          <mxGeometry x="380" y="260" width="120" height="40" as="geometry" />
        </mxCell>
        <mxCell id="UA5KDCB0PcJAtqd0aWiQ-92" value="Update" style="rounded=1;whiteSpace=wrap;html=1;arcSize=40;fontColor=#000000;fillColor=#ffffc0;strokeColor=#ff0000;" parent="UA5KDCB0PcJAtqd0aWiQ-117" vertex="1">
          <mxGeometry x="380" y="323" width="120" height="40" as="geometry" />
        </mxCell>
        <mxCell id="fYxGW6v7XnyAVIJgPDkP-11" style="edgeStyle=orthogonalEdgeStyle;rounded=0;orthogonalLoop=1;jettySize=auto;html=1;exitX=0.5;exitY=1;exitDx=0;exitDy=0;entryX=0.499;entryY=0.028;entryDx=0;entryDy=0;entryPerimeter=0;strokeColor=#ff0000;" parent="UA5KDCB0PcJAtqd0aWiQ-117" source="UA5KDCB0PcJAtqd0aWiQ-92" target="UA5KDCB0PcJAtqd0aWiQ-96" edge="1">
          <mxGeometry relative="1" as="geometry" />
        </mxCell>
        <mxCell id="Hwy9rk10nYl19Dumdkuj-1" style="edgeStyle=orthogonalEdgeStyle;rounded=0;orthogonalLoop=1;jettySize=auto;html=1;exitX=0.5;exitY=0;exitDx=0;exitDy=0;entryX=0;entryY=0.5;entryDx=0;entryDy=0;strokeColor=#ff0000;" parent="UA5KDCB0PcJAtqd0aWiQ-117" source="UA5KDCB0PcJAtqd0aWiQ-79" target="UA5KDCB0PcJAtqd0aWiQ-88" edge="1">
          <mxGeometry relative="1" as="geometry" />
        </mxCell>
        <mxCell id="UA5KDCB0PcJAtqd0aWiQ-79" value="Loop" style="rounded=1;whiteSpace=wrap;html=1;arcSize=40;fontColor=#000000;fillColor=#ffffc0;strokeColor=#ff0000;" parent="UA5KDCB0PcJAtqd0aWiQ-117" vertex="1">
          <mxGeometry x="201" y="323" width="120" height="40" as="geometry" />
        </mxCell>
        <mxCell id="UA5KDCB0PcJAtqd0aWiQ-53" value="Start" style="rounded=1;whiteSpace=wrap;html=1;arcSize=40;fontColor=#000000;fillColor=#ffffc0;strokeColor=#ff0000;" parent="UA5KDCB0PcJAtqd0aWiQ-117" vertex="1">
          <mxGeometry x="210" y="190" width="120" height="40" as="geometry" />
        </mxCell>
        <mxCell id="UA5KDCB0PcJAtqd0aWiQ-56" style="edgeStyle=orthogonalEdgeStyle;rounded=0;orthogonalLoop=1;jettySize=auto;html=1;exitX=0.5;exitY=1;exitDx=0;exitDy=0;" parent="UA5KDCB0PcJAtqd0aWiQ-117" source="UA5KDCB0PcJAtqd0aWiQ-53" target="UA5KDCB0PcJAtqd0aWiQ-53" edge="1">
          <mxGeometry relative="1" as="geometry" />
        </mxCell>
        <mxCell id="fYxGW6v7XnyAVIJgPDkP-12" style="edgeStyle=orthogonalEdgeStyle;rounded=0;orthogonalLoop=1;jettySize=auto;html=1;exitX=0.5;exitY=1;exitDx=0;exitDy=0;entryX=0.5;entryY=0;entryDx=0;entryDy=0;strokeColor=#ff0000;" parent="UA5KDCB0PcJAtqd0aWiQ-117" source="UA5KDCB0PcJAtqd0aWiQ-50" target="UA5KDCB0PcJAtqd0aWiQ-53" edge="1">
          <mxGeometry relative="1" as="geometry" />
        </mxCell>
        <mxCell id="UA5KDCB0PcJAtqd0aWiQ-50" value="Initialize" style="rounded=1;whiteSpace=wrap;html=1;arcSize=40;fontColor=#000000;fillColor=#ffffc0;strokeColor=#ff0000;" parent="UA5KDCB0PcJAtqd0aWiQ-117" vertex="1">
          <mxGeometry x="210" y="110" width="120" height="40" as="geometry" />
        </mxCell>
        <mxCell id="fYxGW6v7XnyAVIJgPDkP-13" style="edgeStyle=orthogonalEdgeStyle;rounded=0;orthogonalLoop=1;jettySize=auto;html=1;entryX=0.5;entryY=0;entryDx=0;entryDy=0;strokeColor=#ff0000;exitX=0.5;exitY=1;exitDx=0;exitDy=0;" parent="UA5KDCB0PcJAtqd0aWiQ-117" source="UA5KDCB0PcJAtqd0aWiQ-45" target="UA5KDCB0PcJAtqd0aWiQ-50" edge="1">
          <mxGeometry relative="1" as="geometry">
            <mxPoint x="279.9985714285715" y="59.99537912803971" as="sourcePoint" />
            <mxPoint x="299.97" y="134.07" as="targetPoint" />
            <Array as="points">
              <mxPoint x="270" y="60" />
            </Array>
          </mxGeometry>
        </mxCell>
        <mxCell id="UA5KDCB0PcJAtqd0aWiQ-45" value="" style="ellipse;html=1;shape=startState;fillColor=#000000;strokeColor=#ff0000;" parent="UA5KDCB0PcJAtqd0aWiQ-117" vertex="1">
          <mxGeometry x="255" y="30" width="30" height="30" as="geometry" />
        </mxCell>
        <mxCell id="Hwy9rk10nYl19Dumdkuj-4" style="edgeStyle=orthogonalEdgeStyle;rounded=0;orthogonalLoop=1;jettySize=auto;html=1;exitX=0.5;exitY=1;exitDx=0;exitDy=0;entryX=0;entryY=0.5;entryDx=0;entryDy=0;strokeColor=#ff0000;" parent="UA5KDCB0PcJAtqd0aWiQ-117" source="UA5KDCB0PcJAtqd0aWiQ-68" target="UA5KDCB0PcJAtqd0aWiQ-58" edge="1">
          <mxGeometry relative="1" as="geometry" />
        </mxCell>
        <mxCell id="Hwy9rk10nYl19Dumdkuj-5" value="No" style="edgeLabel;html=1;align=center;verticalAlign=middle;resizable=0;points=[];" parent="Hwy9rk10nYl19Dumdkuj-4" vertex="1" connectable="0">
          <mxGeometry x="-0.9067" y="1" relative="1" as="geometry">
            <mxPoint as="offset" />
          </mxGeometry>
        </mxCell>
        <mxCell id="UA5KDCB0PcJAtqd0aWiQ-68" value="running" style="rhombus;whiteSpace=wrap;html=1;fontColor=#000000;fillColor=#ffffc0;strokeColor=#ff0000;" parent="UA5KDCB0PcJAtqd0aWiQ-117" vertex="1">
          <mxGeometry x="33" y="323" width="80" height="40" as="geometry" />
        </mxCell>
        <mxCell id="UA5KDCB0PcJAtqd0aWiQ-69" value="Yes" style="edgeStyle=orthogonalEdgeStyle;html=1;align=left;verticalAlign=bottom;endArrow=open;endSize=8;strokeColor=#ff0000;rounded=0;entryX=0;entryY=0.5;entryDx=0;entryDy=0;" parent="UA5KDCB0PcJAtqd0aWiQ-117" source="UA5KDCB0PcJAtqd0aWiQ-68" target="UA5KDCB0PcJAtqd0aWiQ-79" edge="1">
          <mxGeometry x="-1" relative="1" as="geometry">
            <mxPoint x="192" y="344" as="targetPoint" />
          </mxGeometry>
        </mxCell>
        <mxCell id="fYxGW6v7XnyAVIJgPDkP-19" style="edgeStyle=orthogonalEdgeStyle;rounded=0;orthogonalLoop=1;jettySize=auto;html=1;exitX=0;exitY=0.5;exitDx=0;exitDy=0;strokeColor=#ff0000;entryX=0;entryY=0.5;entryDx=0;entryDy=0;" parent="UA5KDCB0PcJAtqd0aWiQ-117" source="UA5KDCB0PcJAtqd0aWiQ-53" target="UA5KDCB0PcJAtqd0aWiQ-68" edge="1">
          <mxGeometry relative="1" as="geometry">
            <mxPoint x="50" y="160" as="sourcePoint" />
            <mxPoint x="50" y="420" as="targetPoint" />
          </mxGeometry>
        </mxCell>
        <mxCell id="UA5KDCB0PcJAtqd0aWiQ-58" value="Exit" style="rounded=1;whiteSpace=wrap;html=1;arcSize=40;fontColor=#000000;fillColor=#ffffc0;strokeColor=#ff0000;" parent="UA5KDCB0PcJAtqd0aWiQ-117" vertex="1">
          <mxGeometry x="210" y="560" width="120" height="40" as="geometry" />
        </mxCell>
        <mxCell id="UA5KDCB0PcJAtqd0aWiQ-60" value="" style="ellipse;html=1;shape=endState;fillColor=#000000;strokeColor=#ff0000;" parent="UA5KDCB0PcJAtqd0aWiQ-117" vertex="1">
          <mxGeometry x="255" y="670" width="30" height="30" as="geometry" />
        </mxCell>
        <mxCell id="UA5KDCB0PcJAtqd0aWiQ-59" value="" style="edgeStyle=orthogonalEdgeStyle;html=1;verticalAlign=bottom;endArrow=open;endSize=8;strokeColor=#ff0000;rounded=0;entryX=0.5;entryY=0;entryDx=0;entryDy=0;" parent="UA5KDCB0PcJAtqd0aWiQ-117" source="UA5KDCB0PcJAtqd0aWiQ-58" target="UA5KDCB0PcJAtqd0aWiQ-60" edge="1">
          <mxGeometry relative="1" as="geometry">
            <mxPoint x="-43" y="674" as="targetPoint" />
          </mxGeometry>
        </mxCell>
        <mxCell id="UA5KDCB0PcJAtqd0aWiQ-118" value="Scene Graph Thread" style="swimlane;startSize=20;html=1;glass=0;" parent="1" vertex="1">
          <mxGeometry x="600" y="50" width="480" height="750" as="geometry" />
        </mxCell>
        <mxCell id="UA5KDCB0PcJAtqd0aWiQ-161" value="" style="ellipse;html=1;shape=startState;fillColor=#000000;strokeColor=#ff0000;" parent="UA5KDCB0PcJAtqd0aWiQ-118" vertex="1">
          <mxGeometry x="230" y="30" width="30" height="30" as="geometry" />
        </mxCell>
        <mxCell id="UA5KDCB0PcJAtqd0aWiQ-162" value="" style="edgeStyle=orthogonalEdgeStyle;html=1;verticalAlign=bottom;endArrow=open;endSize=8;strokeColor=#ff0000;rounded=0;exitX=0.511;exitY=0.844;exitDx=0;exitDy=0;exitPerimeter=0;entryX=0.5;entryY=0;entryDx=0;entryDy=0;" parent="UA5KDCB0PcJAtqd0aWiQ-118" source="UA5KDCB0PcJAtqd0aWiQ-161" edge="1">
          <mxGeometry relative="1" as="geometry">
            <mxPoint x="245" y="110" as="targetPoint" />
          </mxGeometry>
        </mxCell>
        <mxCell id="vcPzUkW2TW6lDijTjsGn-1" value="The Event System" style="swimlane;startSize=20;html=1;" parent="1" vertex="1">
          <mxGeometry x="1120" y="50" width="490" height="750" as="geometry" />
        </mxCell>
        <mxCell id="vcPzUkW2TW6lDijTjsGn-2" value="" style="ellipse;html=1;shape=startState;fillColor=#000000;strokeColor=#ff0000;" parent="vcPzUkW2TW6lDijTjsGn-1" vertex="1">
          <mxGeometry x="230" y="30" width="30" height="30" as="geometry" />
        </mxCell>
        <mxCell id="vcPzUkW2TW6lDijTjsGn-3" value="" style="edgeStyle=orthogonalEdgeStyle;html=1;verticalAlign=bottom;endArrow=open;endSize=8;strokeColor=#ff0000;rounded=0;exitX=0.511;exitY=0.844;exitDx=0;exitDy=0;exitPerimeter=0;entryX=0.5;entryY=0;entryDx=0;entryDy=0;" parent="vcPzUkW2TW6lDijTjsGn-1" source="vcPzUkW2TW6lDijTjsGn-2" edge="1" target="vcPzUkW2TW6lDijTjsGn-5">
          <mxGeometry relative="1" as="geometry">
            <mxPoint x="245" y="110" as="targetPoint" />
          </mxGeometry>
        </mxCell>
        <mxCell id="fe2zWvmO4G2qUtFu0Sgj-3" style="edgeStyle=orthogonalEdgeStyle;rounded=0;orthogonalLoop=1;jettySize=auto;html=1;exitX=0;exitY=0.5;exitDx=0;exitDy=0;entryX=0.5;entryY=0;entryDx=0;entryDy=0;strokeColor=#ff0000;" edge="1" parent="vcPzUkW2TW6lDijTjsGn-1" source="vcPzUkW2TW6lDijTjsGn-5" target="fe2zWvmO4G2qUtFu0Sgj-1">
          <mxGeometry relative="1" as="geometry" />
        </mxCell>
        <mxCell id="vcPzUkW2TW6lDijTjsGn-5" value="Dispatcher" style="html=1;whiteSpace=wrap;" parent="vcPzUkW2TW6lDijTjsGn-1" vertex="1">
          <mxGeometry x="190" y="110" width="110" height="50" as="geometry" />
        </mxCell>
        <mxCell id="fe2zWvmO4G2qUtFu0Sgj-1" value="Listen" style="rounded=1;whiteSpace=wrap;html=1;arcSize=40;fontColor=#000000;fillColor=#ffffc0;strokeColor=#ff0000;" vertex="1" parent="vcPzUkW2TW6lDijTjsGn-1">
          <mxGeometry x="60" y="230" width="120" height="40" as="geometry" />
        </mxCell>
        <mxCell id="fe2zWvmO4G2qUtFu0Sgj-2" value="" style="edgeStyle=orthogonalEdgeStyle;html=1;verticalAlign=bottom;endArrow=open;endSize=8;strokeColor=#ff0000;rounded=0;entryX=0;entryY=0.5;entryDx=0;entryDy=0;exitX=0.5;exitY=1;exitDx=0;exitDy=0;" edge="1" source="fe2zWvmO4G2qUtFu0Sgj-1" parent="vcPzUkW2TW6lDijTjsGn-1" target="fe2zWvmO4G2qUtFu0Sgj-4">
          <mxGeometry relative="1" as="geometry">
            <mxPoint x="245" y="290" as="targetPoint" />
          </mxGeometry>
        </mxCell>
        <mxCell id="fe2zWvmO4G2qUtFu0Sgj-4" value="Has next event" style="rhombus;whiteSpace=wrap;html=1;fontColor=#000000;fillColor=#ffffc0;strokeColor=#ff0000;" vertex="1" parent="vcPzUkW2TW6lDijTjsGn-1">
          <mxGeometry x="181.25" y="333" width="127.5" height="55" as="geometry" />
        </mxCell>
        <mxCell id="fe2zWvmO4G2qUtFu0Sgj-5" value="no" style="edgeStyle=orthogonalEdgeStyle;html=1;align=left;verticalAlign=bottom;endArrow=open;endSize=8;strokeColor=#ff0000;rounded=0;entryX=1;entryY=0.5;entryDx=0;entryDy=0;" edge="1" source="fe2zWvmO4G2qUtFu0Sgj-4" parent="vcPzUkW2TW6lDijTjsGn-1" target="fe2zWvmO4G2qUtFu0Sgj-1">
          <mxGeometry x="-1" relative="1" as="geometry">
            <mxPoint x="400" y="360" as="targetPoint" />
            <Array as="points">
              <mxPoint x="370" y="360" />
              <mxPoint x="370" y="250" />
            </Array>
          </mxGeometry>
        </mxCell>
        <mxCell id="fe2zWvmO4G2qUtFu0Sgj-6" value="yes" style="edgeStyle=orthogonalEdgeStyle;html=1;align=left;verticalAlign=top;endArrow=open;endSize=8;strokeColor=#ff0000;rounded=0;entryX=0.5;entryY=0;entryDx=0;entryDy=0;" edge="1" source="fe2zWvmO4G2qUtFu0Sgj-4" parent="vcPzUkW2TW6lDijTjsGn-1" target="fe2zWvmO4G2qUtFu0Sgj-8">
          <mxGeometry x="-1" relative="1" as="geometry">
            <mxPoint x="120" y="520" as="targetPoint" />
          </mxGeometry>
        </mxCell>
        <mxCell id="fe2zWvmO4G2qUtFu0Sgj-15" style="edgeStyle=orthogonalEdgeStyle;rounded=0;orthogonalLoop=1;jettySize=auto;html=1;exitX=0.5;exitY=1;exitDx=0;exitDy=0;entryX=0.5;entryY=0;entryDx=0;entryDy=0;strokeColor=#ff0000;" edge="1" parent="vcPzUkW2TW6lDijTjsGn-1" source="fe2zWvmO4G2qUtFu0Sgj-8" target="fe2zWvmO4G2qUtFu0Sgj-16">
          <mxGeometry relative="1" as="geometry">
            <mxPoint x="245" y="670" as="targetPoint" />
          </mxGeometry>
        </mxCell>
        <mxCell id="fe2zWvmO4G2qUtFu0Sgj-8" value="Callback Function&lt;br&gt;Event Handle&amp;nbsp;" style="html=1;whiteSpace=wrap;" vertex="1" parent="vcPzUkW2TW6lDijTjsGn-1">
          <mxGeometry x="190" y="570" width="110" height="50" as="geometry" />
        </mxCell>
        <mxCell id="fe2zWvmO4G2qUtFu0Sgj-16" value="" style="ellipse;html=1;shape=endState;fillColor=#000000;strokeColor=#ff0000;" vertex="1" parent="vcPzUkW2TW6lDijTjsGn-1">
          <mxGeometry x="230" y="670" width="30" height="30" as="geometry" />
        </mxCell>
      </root>
    </mxGraphModel>
  </diagram>
</mxfile>
